<svg width="316" height="316" viewBox="0 0 316 316" fill="none" xmlns="http://www.w3.org/2000/svg">
<path fill-rule="evenodd" clip-rule="evenodd" d="M158 296C234.215 296 296 234.215 296 158C296 81.7847 234.215 20 158 20C81.7847 20 20 81.7847 20 158C20 234.215 81.7847 296 158 296ZM158 316C245.261 316 316 245.261 316 158C316 70.739 245.261 0 158 0C70.739 0 0 70.739 0 158C0 245.261 70.739 316 158 316Z" fill="white"/>
<path fill-rule="evenodd" clip-rule="evenodd" d="M19.098 12.3794L21.6506 0L24.2032 12.3794L42.2703 100L43.3013 105L21.6506 210L0 105L1.03098 100L19.098 12.3794ZM6.13617 100L21.6506 24.7588L37.1651 100H6.13617Z" transform="translate(136 53)" fill="white"/>
</svg>
