<?xml version="1.0" encoding="utf-8"?>
<!-- Generator: Adobe Illustrator 18.0.0, SVG Export Plug-In . SVG Version: 6.00 Build 0)  -->
<!DOCTYPE svg PUBLIC "-//W3C//DTD SVG 1.1//EN" "http://www.w3.org/Graphics/SVG/1.1/DTD/svg11.dtd">
<svg version="1.1" xmlns="http://www.w3.org/2000/svg" xmlns:xlink="http://www.w3.org/1999/xlink" x="0px" y="0px"
	 viewBox="0 0 800 417.1" enable-background="new 0 0 800 417.1" xml:space="preserve">
<g id="Layer_1">
</g>
<g id="Layer_2" display="none">
</g>
<g id="Layer_3" display="none">
</g>
<g id="Layer_5">
</g>
<g id="Layer_4">
	<g>
		<path fill="#D1D1D0" d="M132.5,142.5H36.3c-1.5,3.3-2.8,6.6-4.1,10.1h88.9c8,0,15.6,3.1,21.3,8.8l15,15l8.6-8.6l-19.3-19.4
			C142.9,144.6,137.8,142.5,132.5,142.5z"/>
		<path fill="#D1D1D0" d="M181.7,152.1l-25-25c-3.8-3.8-8.8-5.9-14.2-5.9H47.8c-2.4,3.7-4.6,7.4-6.6,11.3h91.3
			c8,0,15.6,3.1,21.3,8.8l19.4,19.4L181.7,152.1z"/>
		<path fill="#D1D1D0" d="M614.5,47.5H181.8c-51.7,0-97.9,25-127,63.6h87.7c8,0,15.6,3.1,21.3,8.8l25,25l7.2-7.2
			c5.7-5.7,15-5.7,20.7,0L276,197c5.7,5.7,5.7,15,0,20.7L216.8,277c-5.7,5.7-15,5.7-20.7,0l-59.3-59.3c-5.7-5.7-5.7-15,0-20.7
			l13.5-13.5l-15-15c-3.8-3.8-8.8-5.9-14.2-5.9H29c-4,14-6.2,28.7-6.2,43.9v0c0,87.5,71.6,159,159,159h432.7
			c87.5,0,159-71.6,159-159v0C773.5,119.1,701.9,47.5,614.5,47.5z M527.2,228.3c-12,0-21.8-9.8-21.8-21.8c0-12,9.8-21.8,21.8-21.8
			s21.8,9.8,21.8,21.8C548.9,218.6,539.2,228.3,527.2,228.3z M590,291.2c-12,0-21.8-9.8-21.8-21.8s9.8-21.8,21.8-21.8
			c12,0,21.8,9.8,21.8,21.8S602,291.2,590,291.2z M590,165.5c-12,0-21.8-9.8-21.8-21.8c0-12,9.8-21.8,21.8-21.8
			c12,0,21.8,9.8,21.8,21.8C611.8,155.8,602,165.5,590,165.5z M652.8,228.3c-12,0-21.8-9.8-21.8-21.8c0-12,9.8-21.8,21.8-21.8
			s21.8,9.8,21.8,21.8C674.6,218.6,664.9,228.3,652.8,228.3z"/>
	</g>
</g>
<g id="Layer_6">
</g>
</svg>
