<?xml version="1.0" encoding="utf-8"?>
<!-- Generator: Adobe Illustrator 18.0.0, SVG Export Plug-In . SVG Version: 6.00 Build 0)  -->
<!DOCTYPE svg PUBLIC "-//W3C//DTD SVG 1.1//EN" "http://www.w3.org/Graphics/SVG/1.1/DTD/svg11.dtd">
<svg version="1.1" xmlns="http://www.w3.org/2000/svg" xmlns:xlink="http://www.w3.org/1999/xlink" x="0px" y="0px"
	 viewBox="0 0 760 323" enable-background="new 0 0 760 323" xml:space="preserve">
<g id="Layer_1">
</g>
<g id="Layer_2" display="none">
</g>
<g id="Layer_3" display="none">
</g>
<g id="Layer_5">
</g>
<g id="Layer_4">
	<g>
		<path fill="#D1D1D0" d="M114.5,98.1H18.3c-1.5,3.3-2.8,6.6-4.1,10.1h88.9c8,0,15.6,3.1,21.3,8.8l15,15l8.6-8.6L128.7,104
			C124.9,100.2,119.9,98.1,114.5,98.1z"/>
		<path fill="#D1D1D0" d="M163.7,107.6l-25-25c-3.8-3.8-8.8-5.9-14.2-5.9H29.8c-2.4,3.7-4.6,7.4-6.6,11.3h91.3
			c8,0,15.6,3.1,21.3,8.8l19.4,19.4L163.7,107.6z"/>
		<path fill="#D1D1D0" d="M596.5,3.1H163.8c-51.7,0-97.9,25-127,63.6h87.7c8,0,15.6,3.1,21.3,8.8l25,25l7.2-7.2
			c5.7-5.7,15-5.7,20.7,0l59.3,59.3c5.7,5.7,5.7,15,0,20.7l-59.3,59.3c-5.7,5.7-15,5.7-20.7,0l-59.3-59.3c-5.7-5.7-5.7-15,0-20.7
			l13.5-13.5l-15-15c-3.8-3.8-8.8-5.9-14.2-5.9H11c-4,14-6.2,28.7-6.2,43.9v0c0,87.5,71.6,159,159,159h432.7
			c87.5,0,159-71.6,159-159v0C755.5,74.7,683.9,3.1,596.5,3.1z M509.2,183.9c-12,0-21.8-9.8-21.8-21.8s9.8-21.8,21.8-21.8
			c12,0,21.8,9.8,21.8,21.8S521.2,183.9,509.2,183.9z M572,246.7c-12,0-21.8-9.8-21.8-21.8s9.8-21.8,21.8-21.8
			c12,0,21.8,9.8,21.8,21.8S584,246.7,572,246.7z M572,121.1c-12,0-21.8-9.8-21.8-21.8S560,77.5,572,77.5c12,0,21.8,9.8,21.8,21.8
			S584,121.1,572,121.1z M634.8,183.9c-12,0-21.8-9.8-21.8-21.8s9.8-21.8,21.8-21.8s21.8,9.8,21.8,21.8S646.9,183.9,634.8,183.9z"/>
	</g>
</g>
<g id="Layer_6">
</g>
</svg>
