<?xml version="1.0" encoding="utf-8"?>
<!-- Generator: Adobe Illustrator 18.0.0, SVG Export Plug-In . SVG Version: 6.00 Build 0)  -->
<!DOCTYPE svg PUBLIC "-//W3C//DTD SVG 1.1//EN" "http://www.w3.org/Graphics/SVG/1.1/DTD/svg11.dtd">
<svg version="1.1" id="Layer_1" xmlns="http://www.w3.org/2000/svg" xmlns:xlink="http://www.w3.org/1999/xlink" x="0px" y="0px"
	 viewBox="0 0 237 231" enable-background="new 0 0 237 231" xml:space="preserve">
<g>
	<path fill-rule="evenodd" clip-rule="evenodd" fill="#FFFFFF" d="M118.7,3.5C55.5,3.5,4.3,54.7,4.3,117.9
		c0,50.5,32.8,93.4,78.2,108.5c5.7,1.1,7.8-2.5,7.8-5.5c0-2.7-0.1-11.7-0.2-21.3c-31.8,6.9-38.5-13.5-38.5-13.5
		C46.5,172.9,39,169.4,39,169.4c-10.4-7.1,0.8-7,0.8-7c11.5,0.8,17.5,11.8,17.5,11.8c10.2,17.5,26.8,12.4,33.3,9.5
		c1-7.4,4-12.4,7.3-15.3c-25.4-2.9-52.1-12.7-52.1-56.5c0-12.5,4.5-22.7,11.8-30.7c-1.2-2.9-5.1-14.5,1.1-30.3
		c0,0,9.6-3.1,31.5,11.7c9.1-2.5,18.9-3.8,28.6-3.9c9.7,0,19.5,1.3,28.7,3.9C169.2,47.9,178.8,51,178.8,51
		c6.2,15.8,2.3,27.4,1.1,30.3c7.3,8,11.8,18.2,11.8,30.7c0,43.9-26.8,53.6-52.2,56.4c4.1,3.5,7.8,10.5,7.8,21.2
		c0,15.3-0.1,27.6-0.1,31.4c0,3,2.1,6.6,7.9,5.5c45.4-15.1,78.2-58,78.2-108.5C233.1,54.7,181.9,3.5,118.7,3.5z"/>
	<path fill="#FFFFFF" d="M47.6,167.8c-0.3,0.6-1.1,0.7-2,0.3c-0.8-0.4-1.3-1.1-1-1.7c0.2-0.6,1.1-0.7,2-0.4
		C47.5,166.4,47.9,167.2,47.6,167.8L47.6,167.8z M46.2,166.7"/>
	<path fill="#FFFFFF" d="M52.3,172.9c-0.5,0.5-1.6,0.3-2.3-0.5c-0.7-0.8-0.9-1.9-0.3-2.4c0.6-0.5,1.6-0.3,2.3,0.5
		C52.7,171.4,52.9,172.4,52.3,172.9L52.3,172.9z M51.2,171.8"/>
	<path fill="#FFFFFF" d="M56.8,179.5c-0.7,0.5-1.8,0-2.6-1c-0.7-1-0.7-2.2,0-2.7c0.7-0.5,1.8,0,2.6,1
		C57.5,177.8,57.5,179,56.8,179.5L56.8,179.5z M56.8,179.5"/>
	<path fill="#FFFFFF" d="M63,185.9c-0.6,0.7-2,0.5-2.9-0.4c-1-0.9-1.3-2.2-0.7-2.9c0.6-0.7,2-0.5,3,0.4
		C63.3,183.9,63.6,185.2,63,185.9L63,185.9z M63,185.9"/>
	<path fill="#FFFFFF" d="M71.5,189.6c-0.3,0.9-1.6,1.3-2.9,0.9c-1.3-0.4-2.1-1.4-1.9-2.3c0.3-0.9,1.6-1.3,2.9-0.9
		C70.9,187.6,71.8,188.7,71.5,189.6L71.5,189.6z M71.5,189.6"/>
	<path fill="#FFFFFF" d="M80.9,190.3c0,0.9-1.1,1.7-2.4,1.7c-1.4,0-2.5-0.7-2.5-1.7c0-1,1.1-1.7,2.4-1.7
		C79.7,188.6,80.9,189.3,80.9,190.3L80.9,190.3z M80.9,190.3"/>
	<path fill="#FFFFFF" d="M89.6,188.8c0.2,0.9-0.8,1.9-2.1,2.1c-1.3,0.2-2.6-0.3-2.7-1.2c-0.2-0.9,0.8-1.9,2.1-2.1
		C88.2,187.3,89.4,187.8,89.6,188.8L89.6,188.8z M89.6,188.8"/>
</g>
</svg>
